<svg version="1.1" id="Layer_1" xmlns="http://www.w3.org/2000/svg" xmlns:xlink="http://www.w3.org/1999/xlink" x="0px" y="0px"
	 width="100%" viewBox="0 0 188 171" enable-background="new 0 0 188 171" xml:space="preserve">
<path fill="#26BBEC" opacity="1.000000" stroke="none" 
	d="
M76.000000,1.000000 
	C113.643600,1.000000 151.287201,1.000000 188.965393,1.000000 
	C188.965393,57.942009 188.965393,114.884041 188.965393,171.913040 
	C126.429787,171.913040 63.859417,171.913040 1.144521,171.913040 
	C1.144521,115.000244 1.144521,58.000179 1.144521,1.000000 
	C24.758184,1.000000 48.410435,1.000000 72.578217,1.351271 
	C69.874901,6.474915 67.568268,12.133463 61.273941,13.090912 
	C66.961273,16.095831 72.281456,18.906769 78.888779,22.397768 
	C76.654732,18.826818 75.177353,16.465355 72.819366,12.696301 
	C76.504227,13.077883 78.771111,13.497723 81.030548,13.460941 
	C82.016869,13.444885 82.987976,12.493568 84.403976,11.932773 
	C90.828392,11.898564 96.814819,11.898564 102.801239,11.898564 
	C102.816383,11.108368 102.831535,10.318172 102.846680,9.527975 
	C97.380981,9.077250 91.918503,8.467949 86.445930,8.357071 
	C85.678268,8.341517 84.861130,10.768181 83.720764,12.178967 
	C82.906853,10.630377 82.439079,8.967194 82.152473,7.948163 
	C79.352844,8.884319 76.516075,9.832892 73.679314,10.781466 
	C73.395554,10.376717 73.111786,9.971967 72.828026,9.567217 
	C73.885353,6.711478 74.942673,3.855739 76.000000,1.000000 
M116.925926,147.485306 
	C116.579803,147.276291 116.233681,147.067261 115.887558,146.858246 
	C115.850746,146.998383 115.741547,147.225647 115.788658,147.264786 
	C116.143745,147.559845 116.529579,147.817886 117.222298,148.533875 
	C117.777061,148.829041 118.331818,149.124207 118.886581,149.419388 
	C119.030449,149.023743 119.174309,148.628098 119.318169,148.232452 
	C118.574394,148.123642 117.830620,148.014832 116.925926,147.485306 
M111.384880,145.169189 
	C111.568840,146.460327 111.752800,147.751480 111.963470,149.755829 
	C112.428040,150.998825 112.892609,152.241837 113.357170,153.484833 
	C113.849228,153.195908 114.341286,152.906982 114.833336,152.618057 
	C113.913078,151.389175 112.992813,150.160309 112.048698,148.156128 
	C112.050545,147.116440 112.052399,146.076736 112.172409,144.945084 
	C112.172409,144.945084 112.159988,144.745956 112.159988,144.745956 
	C112.159988,144.745956 111.965630,144.950974 111.384880,145.169189 
M47.407394,148.079285 
	C47.288940,148.390625 47.170483,148.701981 46.838020,149.693253 
	C47.310833,150.461731 47.783646,151.230225 48.550594,151.780121 
	C48.733131,151.613937 48.883369,151.422409 49.654266,151.101212 
	C50.092335,151.135956 50.530407,151.170700 51.011951,151.793945 
	C51.505188,152.502579 51.998425,153.211197 52.491661,153.919830 
	C52.687717,152.956223 52.883774,151.992630 53.209717,150.355667 
	C53.116890,149.909439 53.024059,149.463211 52.802914,148.311218 
	C51.168213,148.176468 49.533508,148.041718 47.407394,148.079285 
M34.824646,152.641373 
	C34.564354,152.648529 34.304066,152.655685 34.043774,152.662842 
	C34.317093,152.822098 34.590416,152.981369 35.120834,153.779404 
	C37.777699,156.096024 39.162739,154.743195 40.328686,151.809357 
	C40.325890,151.559357 40.323093,151.309372 40.320301,151.059372 
	C40.181526,151.341248 40.042751,151.623123 39.208942,152.029541 
	C37.835697,152.310043 36.462448,152.590546 34.824646,152.641373 
M155.944077,147.752411 
	C154.345261,145.299408 153.546219,146.660202 152.190750,148.575378 
	C151.943893,150.266190 151.697021,151.957001 151.448593,153.658508 
	C153.693176,152.461884 154.815933,151.863312 156.060959,151.799500 
	C156.472473,152.196625 156.883972,152.593750 157.295471,152.990891 
	C157.514420,152.298721 157.733368,151.606552 157.989197,150.316788 
	C157.383102,149.680634 156.777023,149.044495 155.944077,147.752411 
M106.393028,111.806198 
	C110.410744,111.215454 109.491371,114.542580 109.785370,117.211212 
	C111.927101,114.009079 113.657356,111.422157 115.238197,109.058624 
	C112.483002,108.233276 109.644341,107.382935 106.168396,106.341682 
	C107.195114,107.995285 107.875740,109.091469 108.672760,110.375137 
	C107.455742,110.774063 106.681297,111.027916 105.417770,112.027756 
	C101.351646,112.362404 97.279449,113.035568 93.220634,112.962708 
	C84.188927,112.800591 75.163918,112.265213 65.846039,112.068115 
	C65.500412,111.823730 65.154793,111.579346 64.809166,111.334969 
	C64.949379,111.281448 65.145203,111.141159 65.220284,111.189270 
	C65.563248,111.409058 65.872337,111.681709 66.258560,112.662003 
	C76.264366,116.595024 86.494240,117.985008 97.238930,116.322021 
	C101.101662,115.724167 103.924873,114.433197 106.393028,111.806198 
M55.532913,50.055412 
	C69.748291,52.421509 83.560753,50.226921 96.515022,44.607731 
	C103.808151,41.444180 110.432663,36.409168 116.739212,31.432592 
	C120.187767,28.711292 121.427711,24.169273 119.032562,19.641750 
	C116.895454,15.602016 109.980873,12.002928 105.616859,12.587402 
	C109.586632,17.264879 109.007790,21.848280 102.905464,26.401848 
	C89.902985,36.104313 75.148277,39.625866 59.125401,37.188854 
	C56.292953,36.758053 53.051071,35.604843 51.114212,33.668804 
	C49.210918,31.766321 48.728024,28.442827 47.488174,25.416714 
	C44.120613,29.723326 38.930374,33.540161 40.345184,40.119423 
	C41.686436,46.356602 47.364307,48.018021 52.744720,49.539059 
	C53.382408,49.719334 54.039070,49.832470 55.532913,50.055412 
M70.758156,105.942558 
	C79.688240,105.285202 88.753510,105.378128 97.517509,103.799011 
	C111.534737,101.273346 124.860199,96.579971 135.385391,86.225037 
	C139.969421,81.715149 141.585526,76.068405 141.935562,70.765457 
	C113.491272,96.211823 80.755669,101.411964 44.823544,91.863739 
	C47.167110,98.648033 52.494934,102.724136 60.017220,104.149658 
	C63.279236,104.767838 66.556816,105.303886 70.758156,105.942558 
M46.979862,65.811211 
	C41.472416,63.862473 36.517841,61.196980 34.089947,54.315186 
	C30.901108,68.572693 34.559734,75.371819 46.913689,79.142662 
	C60.924850,83.419350 75.137131,82.825974 89.341980,80.110542 
	C90.330940,79.921494 92.013786,78.989143 91.975357,78.516045 
	C91.744240,75.670631 91.687462,72.562439 90.444885,70.114525 
	C89.077133,67.420044 86.949844,65.572525 82.809906,66.427574 
	C71.175804,68.830452 59.400700,69.318512 46.979862,65.811211 
M135.998169,52.473770 
	C134.132751,52.261761 131.849106,51.252632 130.473587,51.974339 
	C124.180183,55.276337 118.679245,53.122692 113.054947,50.378223 
	C109.920677,48.848804 106.735664,47.305332 103.408440,46.333202 
	C101.381676,45.741039 99.040817,46.223938 96.841042,46.223938 
	C96.781158,46.677288 96.721268,47.130634 96.661377,47.583984 
	C101.437454,51.423748 106.213531,55.263508 110.820724,58.967495 
	C104.884613,66.285065 97.616669,65.596313 90.105568,64.343552 
	C91.848778,67.060829 94.041275,68.594299 94.990341,70.690689 
	C95.942711,72.794403 95.655449,75.459320 95.911469,77.878281 
	C96.428093,78.425331 96.944710,78.972382 97.461327,79.519424 
	C100.021820,70.831207 105.569847,66.728241 114.278282,66.230675 
	C113.871788,72.622765 113.486786,78.676727 113.101791,84.730690 
	C113.519501,85.006592 113.937218,85.282486 114.354927,85.558388 
	C115.826454,83.900406 117.763718,82.460655 118.665695,80.535782 
	C120.207802,77.244835 121.198410,73.678963 122.245316,70.176155 
	C123.981110,64.368454 125.839310,58.826134 132.574509,56.747318 
	C133.926041,56.330166 134.821518,54.435371 135.998169,52.473770 
M105.299622,146.012070 
	C106.480743,148.841202 107.661865,151.670334 109.237129,155.443542 
	C111.811043,149.843948 107.782997,148.215958 105.299622,146.012070 
M36.626633,146.367767 
	C35.870567,146.792084 35.114498,147.216400 34.358433,147.640732 
	C34.630665,147.986847 34.902897,148.332977 35.175125,148.679108 
	C35.773457,148.032150 36.371784,147.385193 36.626633,146.367767 
M38.529240,149.500809 
	C38.529240,149.500809 38.490070,149.514557 38.529240,149.500809 
z"/>
<path fill="#EBF9FD" opacity="1.000000" stroke="none" 
	d="
M75.625000,1.000000 
	C74.942673,3.855739 73.885353,6.711478 72.828026,9.567217 
	C73.111786,9.971967 73.395554,10.376717 73.679314,10.781466 
	C76.516075,9.832892 79.352844,8.884319 82.152473,7.948163 
	C82.439079,8.967194 82.906853,10.630377 83.697762,12.152310 
	C84.020897,12.011061 83.965988,11.966982 83.965988,11.966982 
	C82.987976,12.493568 82.016869,13.444885 81.030548,13.460941 
	C78.771111,13.497723 76.504227,13.077883 72.819366,12.696301 
	C75.177353,16.465355 76.654732,18.826818 78.888779,22.397768 
	C72.281456,18.906769 66.961273,16.095831 61.273941,13.090912 
	C67.568268,12.133463 69.874901,6.474915 73.046875,1.351271 
	C73.750000,1.000000 74.500000,1.000000 75.625000,1.000000 
z"/>
<path fill="#FBFEFF" opacity="1.000000" stroke="none" 
	d="
M55.109924,50.016068 
	C54.039070,49.832470 53.382408,49.719334 52.744720,49.539059 
	C47.364307,48.018021 41.686436,46.356602 40.345184,40.119423 
	C38.930374,33.540161 44.120613,29.723326 47.488174,25.416714 
	C48.728024,28.442827 49.210918,31.766321 51.114212,33.668804 
	C53.051071,35.604843 56.292953,36.758053 59.125401,37.188854 
	C75.148277,39.625866 89.902985,36.104313 102.905464,26.401848 
	C109.007790,21.848280 109.586632,17.264879 105.616859,12.587402 
	C109.980873,12.002928 116.895454,15.602016 119.032562,19.641750 
	C121.427711,24.169273 120.187767,28.711292 116.739212,31.432592 
	C110.432663,36.409168 103.808151,41.444180 96.515022,44.607731 
	C83.560753,50.226921 69.748291,52.421509 55.109924,50.016068 
z"/>
<path fill="#F9FDFE" opacity="1.000000" stroke="none" 
	d="
M70.292740,105.909897 
	C66.556816,105.303886 63.279236,104.767838 60.017220,104.149658 
	C52.494934,102.724136 47.167110,98.648033 44.823544,91.863739 
	C80.755669,101.411964 113.491272,96.211823 141.935562,70.765457 
	C141.585526,76.068405 139.969421,81.715149 135.385391,86.225037 
	C124.860199,96.579971 111.534737,101.273346 97.517509,103.799011 
	C88.753510,105.378128 79.688240,105.285202 70.292740,105.909897 
z"/>
<path fill="#FBFEFF" opacity="1.000000" stroke="none" 
	d="
M47.368465,65.909012 
	C59.400700,69.318512 71.175804,68.830452 82.809906,66.427574 
	C86.949844,65.572525 89.077133,67.420044 90.444885,70.114525 
	C91.687462,72.562439 91.744240,75.670631 91.975357,78.516045 
	C92.013786,78.989143 90.330940,79.921494 89.341980,80.110542 
	C75.137131,82.825974 60.924850,83.419350 46.913689,79.142662 
	C34.559734,75.371819 30.901108,68.572693 34.089947,54.315186 
	C36.517841,61.196980 41.472416,63.862473 47.368465,65.909012 
z"/>
<path fill="#F7FCFE" opacity="1.000000" stroke="none" 
	d="
M135.962708,52.847824 
	C134.821518,54.435371 133.926041,56.330166 132.574509,56.747318 
	C125.839310,58.826134 123.981110,64.368454 122.245316,70.176155 
	C121.198410,73.678963 120.207802,77.244835 118.665695,80.535782 
	C117.763718,82.460655 115.826454,83.900406 114.354927,85.558388 
	C113.937218,85.282486 113.519501,85.006592 113.101791,84.730690 
	C113.486786,78.676727 113.871788,72.622765 114.278282,66.230675 
	C105.569847,66.728241 100.021820,70.831207 97.461327,79.519424 
	C96.944710,78.972382 96.428093,78.425331 95.911469,77.878281 
	C95.655449,75.459320 95.942711,72.794403 94.990341,70.690689 
	C94.041275,68.594299 91.848778,67.060829 90.105568,64.343552 
	C97.616669,65.596313 104.884613,66.285065 110.820724,58.967495 
	C106.213531,55.263508 101.437454,51.423748 96.661377,47.583984 
	C96.721268,47.130634 96.781158,46.677288 96.841042,46.223938 
	C99.040817,46.223938 101.381676,45.741039 103.408440,46.333202 
	C106.735664,47.305332 109.920677,48.848804 113.054947,50.378223 
	C118.679245,53.122692 124.180183,55.276337 130.473587,51.974339 
	C131.849106,51.252632 134.132751,52.261761 135.962708,52.847824 
z"/>
<path fill="#EAF8FD" opacity="1.000000" stroke="none" 
	d="
M66.136177,111.881958 
	C75.163918,112.265213 84.188927,112.800591 93.220634,112.962708 
	C97.279449,113.035568 101.351646,112.362404 105.669662,111.623276 
	C105.921555,111.218796 105.884521,111.156044 105.884521,111.156044 
	C103.924873,114.433197 101.101662,115.724167 97.238930,116.322021 
	C86.494240,117.985008 76.264366,116.595024 66.204041,112.295082 
	C66.149521,111.928162 66.136177,111.881958 66.136177,111.881958 
z"/>
<path fill="#EAF8FD" opacity="1.000000" stroke="none" 
	d="
M84.043900,12.037717 
	C84.861130,10.768181 85.678268,8.341517 86.445930,8.357071 
	C91.918503,8.467949 97.380981,9.077250 102.846680,9.527975 
	C102.831535,10.318172 102.816383,11.108368 102.801239,11.898564 
	C96.814819,11.898564 90.828392,11.898564 84.403976,11.932774 
	C83.965988,11.966982 84.020897,12.011061 84.043900,12.037717 
z"/>
<path fill="#E2F6FC" opacity="1.000000" stroke="none" 
	d="
M106.138779,111.481125 
	C105.884521,111.156044 105.921555,111.218796 105.914207,111.250282 
	C106.681297,111.027916 107.455742,110.774063 108.672760,110.375137 
	C107.875740,109.091469 107.195114,107.995285 106.168396,106.341682 
	C109.644341,107.382935 112.483002,108.233276 115.238197,109.058624 
	C113.657356,111.422157 111.927101,114.009079 109.785370,117.211212 
	C109.491371,114.542580 110.410744,111.215454 106.138779,111.481125 
z"/>
<path fill="#2FBDED" opacity="1.000000" stroke="none" 
	d="
M105.550812,145.866440 
	C107.782997,148.215958 111.811043,149.843948 109.237129,155.443542 
	C107.661865,151.670334 106.480743,148.841202 105.550812,145.866440 
z"/>
<path fill="#CAEEFA" opacity="1.000000" stroke="none" 
	d="
M155.938705,151.264740 
	C154.815933,151.863312 153.693176,152.461884 151.448593,153.658508 
	C151.697021,151.957001 151.943893,150.266190 152.539398,148.817535 
	C153.982346,148.842560 155.076645,148.625458 156.170929,148.408340 
	C156.777023,149.044495 157.383102,149.680634 157.635406,150.676590 
	C156.833969,151.112518 156.386337,151.188644 155.938705,151.264740 
z"/>
<path fill="#2FBDED" opacity="1.000000" stroke="none" 
	d="
M156.057495,148.080383 
	C155.076645,148.625458 153.982346,148.842560 152.857986,148.732788 
	C153.546219,146.660202 154.345261,145.299408 156.057495,148.080383 
z"/>
<path fill="#40C3EE" opacity="1.000000" stroke="none" 
	d="
M35.089203,152.871048 
	C36.462448,152.590546 37.835697,152.310043 39.601067,152.006744 
	C39.993195,151.983932 40.086140,152.058441 40.086140,152.058441 
	C39.162739,154.743195 37.777699,156.096024 35.049904,153.393661 
	C34.978977,153.007919 35.089203,152.871048 35.089203,152.871048 
z"/>
<path fill="#2FBDED" opacity="1.000000" stroke="none" 
	d="
M112.072548,148.931427 
	C112.992813,150.160309 113.913078,151.389175 114.833336,152.618057 
	C114.341286,152.906982 113.849228,153.195908 113.357170,153.484833 
	C112.892609,152.241837 112.428040,150.998825 111.984924,149.371994 
	C112.006371,148.988159 112.072548,148.931427 112.072548,148.931427 
z"/>
<path fill="#EBF9FD" opacity="1.000000" stroke="none" 
	d="
M48.256454,151.998703 
	C47.783646,151.230225 47.310833,150.461731 47.189999,149.342560 
	C47.541977,148.991867 48.032898,148.992233 48.168182,149.317139 
	C49.525448,149.429245 50.747433,149.216461 52.209946,149.001709 
	C52.450470,148.999756 52.931232,149.016983 52.931232,149.016983 
	C53.024059,149.463211 53.116890,149.909439 52.790375,150.700317 
	C51.903519,151.098450 51.435997,151.151947 50.968479,151.205444 
	C50.530407,151.170700 50.092335,151.135956 49.089348,151.141235 
	C48.172527,151.367645 48.083202,151.640121 48.256454,151.998703 
z"/>
<path fill="#3EC2EE" opacity="1.000000" stroke="none" 
	d="
M50.990215,151.499695 
	C51.435997,151.151947 51.903519,151.098450 52.725433,151.036987 
	C52.883774,151.992630 52.687717,152.956223 52.491661,153.919830 
	C51.998425,153.211197 51.505188,152.502579 50.990215,151.499695 
z"/>
<path fill="#40C3EE" opacity="1.000000" stroke="none" 
	d="
M36.798374,146.553009 
	C36.371784,147.385193 35.773457,148.032150 35.175125,148.679108 
	C34.902897,148.332977 34.630665,147.986847 34.358433,147.640732 
	C35.114498,147.216400 35.870567,146.792084 36.798374,146.553009 
z"/>
<path fill="#CAEEFA" opacity="1.000000" stroke="none" 
	d="
M52.867073,148.664093 
	C52.931232,149.016983 52.450470,148.999756 51.941490,148.839081 
	C50.454216,148.605927 49.475918,148.533463 48.347958,148.322433 
	C48.198296,148.183884 47.898808,147.906967 47.898808,147.906967 
	C49.533508,148.041718 51.168213,148.176468 52.867073,148.664093 
z"/>
<path fill="#2FBDED" opacity="1.000000" stroke="none" 
	d="
M112.054253,145.037048 
	C112.052399,146.076736 112.050545,147.116440 112.060623,148.543777 
	C112.072548,148.931427 112.006371,148.988159 111.971565,149.015381 
	C111.752800,147.751480 111.568840,146.460327 111.696152,145.082901 
	C112.007423,144.996613 112.054253,145.037048 112.054253,145.037048 
z"/>
<path fill="#2FBDED" opacity="1.000000" stroke="none" 
	d="
M117.086845,147.906021 
	C117.830620,148.014832 118.574394,148.123642 119.318176,148.232452 
	C119.174309,148.628098 119.030449,149.023743 118.886581,149.419388 
	C118.331818,149.124207 117.777061,148.829041 117.109940,148.265961 
	C116.997589,147.998032 117.086845,147.906021 117.086845,147.906021 
z"/>
<path fill="#48C5EF" opacity="1.000000" stroke="none" 
	d="
M155.999832,151.532135 
	C156.386337,151.188644 156.833969,151.112518 157.616959,150.975388 
	C157.733368,151.606552 157.514420,152.298721 157.295471,152.990891 
	C156.883972,152.593750 156.472473,152.196625 155.999832,151.532135 
z"/>
<path fill="#EAF8FD" opacity="1.000000" stroke="none" 
	d="
M66.171555,111.931763 
	C65.872337,111.681709 65.563248,111.409058 65.220284,111.189270 
	C65.145203,111.141159 64.949379,111.281448 64.809166,111.334969 
	C65.154793,111.579346 65.500412,111.823730 65.991104,111.975037 
	C66.136177,111.881958 66.149521,111.928162 66.171555,111.931763 
z"/>
<path fill="#2FBDED" opacity="1.000000" stroke="none" 
	d="
M116.951698,148.042770 
	C116.529579,147.817886 116.143745,147.559845 115.788658,147.264786 
	C115.741547,147.225647 115.850746,146.998383 115.887558,146.858246 
	C116.233681,147.067261 116.579803,147.276291 117.006386,147.695663 
	C117.086845,147.906021 116.997589,147.998032 116.951698,148.042770 
z"/>
<path fill="#40C3EE" opacity="1.000000" stroke="none" 
	d="
M39.948586,151.944458 
	C40.042751,151.623123 40.181526,151.341248 40.320297,151.059372 
	C40.323093,151.309372 40.325890,151.559357 40.207413,151.933899 
	C40.086140,152.058441 39.993195,151.983932 39.948586,151.944458 
z"/>
<path fill="#40C3EE" opacity="1.000000" stroke="none" 
	d="
M34.921356,153.074280 
	C34.590416,152.981369 34.317093,152.822098 34.043774,152.662842 
	C34.304066,152.655685 34.564354,152.648529 34.956924,152.756210 
	C35.089203,152.871048 34.978977,153.007919 34.921356,153.074280 
z"/>
<path fill="#CAEEFA" opacity="1.000000" stroke="none" 
	d="
M48.032898,148.992233 
	C48.032898,148.992233 47.541977,148.991867 47.297005,149.002594 
	C47.170483,148.701981 47.288940,148.390625 47.653099,147.993134 
	C47.898808,147.906967 48.198296,148.183884 48.260323,148.480026 
	C48.322353,148.776169 48.032898,148.992233 48.032898,148.992233 
z"/>
<path fill="#2FBDED" opacity="1.000000" stroke="none" 
	d="
M111.986526,144.973785 
	C111.965630,144.950974 112.159988,144.745956 112.159988,144.745956 
	C112.159988,144.745956 112.172409,144.945084 112.113327,144.991058 
	C112.054253,145.037048 112.007423,144.996613 111.986526,144.973785 
z"/>
<path fill="#40C3EE" opacity="1.000000" stroke="none" 
	d="
M38.509655,149.507690 
	C38.490070,149.514557 38.529240,149.500809 38.509655,149.507690 
z"/>
<path fill="#3EC2EE" opacity="1.000000" stroke="none" 
	d="
M48.403526,151.889404 
	C48.083202,151.640121 48.172527,151.367645 48.762863,151.193405 
	C48.883369,151.422409 48.733131,151.613937 48.403526,151.889404 
z"/>
<path fill="#26BBEC" opacity="1.000000" stroke="none" 
	d="
M48.168182,149.317139 
	C48.032898,148.992233 48.322353,148.776169 48.409988,148.618576 
	C49.475918,148.533463 50.454216,148.605927 51.700966,148.841034 
	C50.747433,149.216461 49.525448,149.429245 48.168182,149.317139 
z"/>
</svg>